# xmcd
#
# Track frame offsets:
#	150
#	13730
#	27162
#	40450
#	52987
#	76180
#	89382
#	104780
#	117952
#	134227
#	150370
#	163700
#	176770
#	194610
#
# Disc length: 2786
#
# Revision: 1
# Processed by: cddbd v1.5.1PL0 Copyright (c) Steve Scherf et al.
# Submitted via: dBpowerAMP V4.0
# Normalized: r0:DSETVAR1,TDELIM( - )
#
DISCID=bd0ae00e
DTITLE=Various Artist - Mr.Music Country 01.1997
DYEAR=1900
DGENRE=
TTITLE0=Larry Kingston - Hard lovin' and easy goodbyes
TTITLE1=Diane Elliott - Number only one
TTITLE2=Keith Perry - All I give a darn about is you
TTITLE3=Junior Brown - Darlin' I'll do anything you say
TTITLE4=James T.Horn - If my heart had an ass
TTITLE5=Merle Haggard - Too many highways
TTITLE6=Sharon Anderson - Comin' down with a heartache
TTITLE7=Trevor Watkins - The singer
TTITLE8=David Kersh - Breaking hearts and taking names
TTITLE9=Hank Williams Jr. - Houston we have a problem
TTITLE10=Inger Nordstrøm and Rhinestone Band - Sally dear
TTITLE11=Tony Toliver - Bettin' forever on you
TTITLE12=Ron Sweet - Baby that's cold
TTITLE13=Par Roden - Somewhere in Kansas
EXTD=
EXTT0=
EXTT1=
EXTT2=
EXTT3=
EXTT4=
EXTT5=
EXTT6=
EXTT7=
EXTT8=
EXTT9=
EXTT10=
EXTT11=
EXTT12=
EXTT13=
PLAYORDER=
